# xmcd
#
# Track frame offsets:
#	150
#	14970
#	25936
#	38753
#	50785
#	61989
#	81218
#	93951
#	108299
#	119765
#	131698
#	142152
#	154581
#	167364
#	179034
#	190545
#	199551
#	222154
#
# Disc length: 3134 seconds
#
# Revision: 1
# Processed by: cddbd v1.5.2PL0 Copyright (c) Steve Scherf et al.
# Submitted via: audiograbber 1.83.01
#
DISCID=020c3c12
DTITLE=Various Artist - Country Number 1s  Icons  CD2
DYEAR=2007
DGENRE=Country
TTITLE0=Jeannie C Riley - Harper Vally P.T.A.
TTITLE1=Hank Locklin - Please help me I'm falling
TTITLE2=Jim Reeves - Bimbo
TTITLE3=Tennessee Ernie Ford - Sixteen Tons
TTITLE4=Roger Miller - King of the road
TTITLE5=Juice Newton - The Sweetest thing (I've ever known)
TTITLE6=Don Williams - Some broken hearts never mend
TTITLE7=Merle Haggard - Always wanting you
TTITLE8=Eddy Arnold - Bouquet of roses
TTITLE9=Hank Williams - Take this chains from my heart
TTITLE10=Leroy van Dyke - Walk on by
TTITLE11=Hank Thompson - The wild side of life
TTITLE12=Hank Snow - I'm movin' on
TTITLE13=Freddy Fender - Before the next teardrop falls
TTITLE14=The Kendalls - Heaven's just a sin away
TTITLE15=Johnny Rodriguez - Just get up and close the door
TTITLE16=Eddie Rabbitt - Suspicions
TTITLE17=Chalie Rich - The most beautiful girl
EXTD=
EXTT0=
EXTT1=
EXTT2=
EXTT3=
EXTT4=
EXTT5=
EXTT6=
EXTT7=
EXTT8=
EXTT9=
EXTT10=
EXTT11=
EXTT12=
EXTT13=
EXTT14=
EXTT15=
EXTT16=
EXTT17=
PLAYORDER=
